<svg xmlns="http://www.w3.org/2000/svg" width="1024" height="1024" viewBox="0 0 1024 1024"><title>XPENC</title><defs><linearGradient id="tile" x1="0" x2="0" y1="0" y2="1"><stop offset="0" stop-color="#17171A"/><stop offset="1" stop-color="#000"/></linearGradient><clipPath id="squircle"><polygon points="1013.8 512 1013.6 621.2 1013.2 661.6 1012.5 691.8 1011.5 716.7 1010.3 738.4 1008.7 757.7 1006.9 775.2 1004.8 791.3 1002.4 806.2 999.8 820.1 996.8 833.1 993.6 845.4 990 856.9 986.2 867.8 982 878.2 977.5 888 972.8 897.3 967.7 906.1 962.3 914.5 956.5 922.4 950.4 930 944 937.2 937.2 944 930 950.4 922.4 956.5 914.5 962.3 906.1 967.7 897.3 972.8 888 977.5 878.2 982 867.8 986.2 856.9 990 845.4 993.6 833.1 996.8 820.1 999.8 806.2 1002.4 791.3 1004.8 775.2 1006.9 757.7 1008.7 738.4 1010.3 716.7 1011.5 691.8 1012.5 661.6 1013.2 621.2 1013.6 512 1013.8 402.8 1013.6 362.4 1013.2 332.2 1012.5 307.3 1011.5 285.6 1010.3 266.3 1008.7 248.8 1006.9 232.7 1004.8 217.8 1002.4 203.9 999.8 190.9 996.8 178.6 993.6 167.1 990 156.2 986.2 145.8 982 136 977.5 126.7 972.8 117.9 967.7 109.5 962.3 101.6 956.5 94 950.4 86.8 944 80 937.2 73.6 930 67.5 922.4 61.7 914.5 56.3 906.1 51.2 897.3 46.5 888 42 878.2 37.8 867.8 34 856.9 30.4 845.4 27.2 833.1 24.2 820.1 21.6 806.2 19.2 791.3 17.1 775.2 15.3 757.7 13.7 738.4 12.5 716.7 11.5 691.8 10.8 661.6 10.4 621.2 10.2 512 10.4 402.8 10.8 362.4 11.5 332.2 12.5 307.3 13.7 285.6 15.3 266.3 17.1 248.8 19.2 232.7 21.6 217.8 24.2 203.9 27.2 190.9 30.4 178.6 34 167.1 37.8 156.2 42 145.8 46.5 136 51.2 126.7 56.3 117.9 61.7 109.5 67.5 101.6 73.6 94 80 86.8 86.8 80 94 73.6 101.6 67.5 109.5 61.7 117.9 56.3 126.7 51.2 136 46.5 145.8 42 156.2 37.8 167.1 34 178.6 30.4 190.9 27.2 203.9 24.2 217.8 21.6 232.7 19.2 248.8 17.1 266.3 15.3 285.6 13.7 307.3 12.5 332.2 11.5 362.4 10.8 402.8 10.4 512 10.2 621.2 10.4 661.6 10.8 691.8 11.5 716.7 12.5 738.4 13.7 757.7 15.3 775.2 17.1 791.3 19.2 806.2 21.6 820.1 24.2 833.1 27.2 845.4 30.4 856.9 34 867.8 37.8 878.2 42 888 46.5 897.3 51.2 906.1 56.3 914.5 61.7 922.4 67.5 930 73.6 937.2 80 944 86.8 950.4 94 956.5 101.6 962.3 109.5 967.7 117.9 972.8 126.7 977.5 136 982 145.8 986.2 156.2 990 167.1 993.6 178.6 996.8 190.9 999.8 203.9 1002.4 217.8 1004.8 232.7 1006.9 248.8 1008.7 266.3 1010.3 285.6 1011.5 307.3 1012.5 332.2 1013.2 362.4 1013.6 402.8"/></clipPath></defs><g clip-path="url(#squircle)"><rect width="1024" height="1024" fill="url(#tile)"/></g><g fill="none" stroke="#FFF" stroke-linecap="round" stroke-width="131.1"><line x1="290.8" x2="733.2" y1="290.8" y2="733.2"/><line x1="290.8" x2="733.2" y1="733.2" y2="290.8" stroke="#000" stroke-width="192.5"/><line x1="290.8" x2="733.2" y1="733.2" y2="290.8" stroke="#FFF"/></g></svg>